<svg xmlns="http://www.w3.org/2000/svg" width="225" height="225" viewBox="0 0 225 225"><rect width="100%" height="100%" fill="#DDDDDD"/><path fill="#999999" d="M53.725 119.895h5.57q.59 0 .95.34.35.34.35.89v2.22h-14.88v-1.23q0-.37.16-.79.16-.41.5-.74l6.59-6.6q.82-.84 1.47-1.6.66-.77 1.09-1.52.44-.75.67-1.52.23-.77.23-1.63 0-.78-.22-1.37-.23-.59-.64-1-.41-.4-.99-.61-.58-.2-1.3-.2-.66 0-1.22.19-.56.19-1 .52-.43.34-.74.79-.29.45-.44.99-.26.69-.66.92-.41.22-1.17.1l-1.95-.34q.22-1.56.87-2.74.64-1.18 1.61-1.97.97-.78 2.22-1.18 1.25-.4 2.69-.4 1.5 0 2.75.44 1.24.45 2.12 1.26.89.8 1.39 1.94.49 1.15.49 2.54 0 1.2-.35 2.22-.35 1.02-.95 1.95-.59.93-1.38 1.8-.8.87-1.67 1.77l-4.89 5q.71-.22 1.4-.33.7-.11 1.33-.11Zm17.4 0h5.56q.6 0 .96.34.35.34.35.89v2.22h-14.88v-1.23q0-.37.16-.79.15-.41.5-.74l6.58-6.6q.83-.84 1.48-1.6.66-.77 1.09-1.52.43-.75.67-1.52.23-.77.23-1.63 0-.78-.22-1.37-.23-.59-.64-1-.42-.4-.99-.61-.58-.2-1.3-.2-.66 0-1.22.19-.57.19-1 .52-.43.34-.74.79-.29.45-.44.99-.26.69-.67.92-.4.22-1.17.1l-1.94-.34q.22-1.56.86-2.74.65-1.18 1.62-1.97.96-.78 2.22-1.18 1.25-.4 2.69-.4 1.5 0 2.75.44 1.24.45 2.13 1.26.88.8 1.37 1.94.5 1.15.5 2.54 0 1.2-.35 2.22-.36 1.02-.95 1.95-.59.93-1.38 1.8-.8.87-1.67 1.77l-4.89 5q.71-.22 1.4-.33.7-.11 1.33-.11Zm15.1-14.88-.76 4.52q.72-.15 1.38-.22.66-.07 1.27-.07 1.71 0 3.02.51 1.3.51 2.19 1.41.89.9 1.33 2.11.45 1.2.45 2.6 0 1.72-.6 3.15-.61 1.42-1.69 2.44-1.08 1.01-2.56 1.56-1.47.56-3.22.56-1.02 0-1.93-.21-.92-.21-1.72-.56-.8-.36-1.48-.81-.69-.46-1.23-.97l1.14-1.57q.36-.51.95-.51.37 0 .77.23.39.24.89.53.5.29 1.18.53.68.24 1.64.24 1.02 0 1.8-.33t1.3-.93q.52-.59.78-1.41.26-.81.26-1.77 0-1.77-1.02-2.77-1.03-1-3.04-1-1.54 0-3.17.57l-2.3-.66 1.79-10.53h10.71v1.58q0 .79-.49 1.29-.5.49-1.68.49h-5.96Zm33.62 13.37-1.97 1.93-5.08-5.09-5.13 5.12-1.97-1.93 5.13-5.15-4.89-4.89 1.95-1.95 4.89 4.89 4.86-4.86 1.98 1.95-4.87 4.88 5.1 5.1Zm18.06 1.51h5.56q.6 0 .96.34.35.34.35.89v2.22h-14.88v-1.23q0-.37.16-.79.15-.41.5-.74l6.58-6.6q.83-.84 1.48-1.6.65-.77 1.09-1.52.43-.75.67-1.52.23-.77.23-1.63 0-.78-.23-1.37-.22-.59-.63-1-.42-.4-.99-.61-.58-.2-1.3-.2-.66 0-1.22.19-.57.19-1 .52-.44.34-.74.79t-.45.99q-.25.69-.66.92-.4.22-1.17.1l-1.95-.34q.23-1.56.87-2.74.65-1.18 1.62-1.97.96-.78 2.22-1.18 1.25-.4 2.69-.4 1.5 0 2.74.44 1.25.45 2.13 1.26.89.8 1.38 1.94.5 1.15.5 2.54 0 1.2-.35 2.22-.36 1.02-.95 1.95-.59.93-1.39 1.8-.79.87-1.66 1.77l-4.89 5q.7-.22 1.4-.33.7-.11 1.33-.11Zm17.4 0h5.56q.6 0 .96.34.35.34.35.89v2.22h-14.88v-1.23q0-.37.16-.79.15-.41.5-.74l6.58-6.6q.83-.84 1.48-1.6.65-.77 1.09-1.52.43-.75.67-1.52.23-.77.23-1.63 0-.78-.23-1.37-.22-.59-.63-1-.42-.4-.99-.61-.58-.2-1.3-.2-.66 0-1.22.19-.57.19-1 .52-.44.34-.74.79t-.45.99q-.25.69-.66.92-.4.22-1.17.1l-1.95-.34q.23-1.56.87-2.74.65-1.18 1.62-1.97.96-.78 2.22-1.18 1.25-.4 2.69-.4 1.5 0 2.74.44 1.25.45 2.13 1.26.89.8 1.38 1.94.5 1.15.5 2.54 0 1.2-.35 2.22-.36 1.02-.95 1.95-.59.93-1.39 1.8-.79.87-1.66 1.77l-4.89 5q.7-.22 1.4-.33.7-.11 1.33-.11Zm15.1-14.88-.76 4.52q.72-.15 1.38-.22.66-.07 1.27-.07 1.71 0 3.02.51 1.3.51 2.19 1.41.88.9 1.33 2.11.45 1.2.45 2.6 0 1.72-.6 3.15-.61 1.42-1.69 2.44-1.08 1.01-2.56 1.56-1.48.56-3.22.56-1.02 0-1.93-.21-.92-.21-1.72-.56-.8-.36-1.48-.81-.69-.46-1.23-.97l1.14-1.57q.36-.51.95-.51.37 0 .76.23.39.24.9.53.5.29 1.18.53.68.24 1.64.24 1.02 0 1.8-.33t1.3-.93q.52-.59.78-1.41.26-.81.26-1.77 0-1.77-1.02-2.77-1.03-1-3.04-1-1.55 0-3.17.57l-2.31-.66 1.8-10.53h10.71v1.58q0 .79-.49 1.29-.5.49-1.68.49h-5.96Z"/></svg>