<?xml version="1.0" encoding="UTF-8"?>
<!DOCTYPE svg PUBLIC "-//W3C//DTD SVG 1.1//EN" "http://www.w3.org/Graphics/SVG/1.1/DTD/svg11.dtd">
<svg xmlns="http://www.w3.org/2000/svg" version="1.1" width="512px" height="512px" style="shape-rendering:geometricPrecision; text-rendering:geometricPrecision; image-rendering:optimizeQuality; fill-rule:evenodd; clip-rule:evenodd" xmlns:xlink="http://www.w3.org/1999/xlink">
<g><path style="opacity:1" fill="#550022" d="M -0.5,-0.5 C 170.167,-0.5 340.833,-0.5 511.5,-0.5C 511.5,170.167 511.5,340.833 511.5,511.5C 340.833,511.5 170.167,511.5 -0.5,511.5C -0.5,340.833 -0.5,170.167 -0.5,-0.5 Z"/></g>
<g><path style="opacity:1" fill="#d2bcc4" d="M 131.5,106.5 C 118.833,106.5 106.167,106.5 93.5,106.5C 93.7373,107.791 93.404,108.791 92.5,109.5C 92.5,108.167 92.5,106.833 92.5,105.5C 105.677,105.171 118.677,105.505 131.5,106.5 Z"/></g>
<g><path style="opacity:1" fill="#fdfcfd" d="M 131.5,106.5 C 131.5,203.5 131.5,300.5 131.5,397.5C 122.833,397.5 114.167,397.5 105.5,397.5C 108.11,314.831 110.776,232.165 113.5,149.5C 114.815,144.32 114.815,138.986 113.5,133.5C 112.893,133.624 112.56,133.957 112.5,134.5C 100.423,198.04 89.0897,261.707 78.5,325.5C 74.1667,325.5 69.8333,325.5 65.5,325.5C 56.7019,268.379 47.3686,211.379 37.5,154.5C 37.44,153.957 37.1067,153.624 36.5,153.5C 35.5,237.497 35.1667,321.497 35.5,405.5C 28.8333,405.5 22.1667,405.5 15.5,405.5C 15.5,308.5 15.5,211.5 15.5,114.5C 27.5803,114.188 39.5803,114.521 51.5,115.5C 58.2485,164.488 64.9152,213.488 71.5,262.5C 71.5,263.5 71.5,264.5 71.5,265.5C 72.791,265.737 73.791,265.404 74.5,264.5C 80.4341,212.826 86.4341,161.159 92.5,109.5C 93.404,108.791 93.7373,107.791 93.5,106.5C 106.167,106.5 118.833,106.5 131.5,106.5 Z"/></g>
<g><path style="opacity:1" fill="#d3bdc6" d="M 15.5,114.5 C 21.3238,113.834 27.3238,113.5 33.5,113.5C 39.8725,113.504 45.8725,114.171 51.5,115.5C 39.5803,114.521 27.5803,114.188 15.5,114.5 Z"/></g>
<g><path style="opacity:1" fill="#ceb5bf" d="M 265.5,114.5 C 273.984,113.507 282.651,113.174 291.5,113.5C 291.5,115.167 291.5,116.833 291.5,118.5C 290.566,117.432 290.232,116.099 290.5,114.5C 282.167,114.5 273.833,114.5 265.5,114.5 Z"/></g>
<g><path style="opacity:1" fill="#6b223e" d="M 380.5,113.5 C 380.5,113.833 380.5,114.167 380.5,114.5C 380.5,208.833 380.5,303.167 380.5,397.5C 388.167,397.5 395.833,397.5 403.5,397.5C 395.684,398.492 387.684,398.826 379.5,398.5C 379.167,303.332 379.501,208.332 380.5,113.5 Z"/></g>
<g><path style="opacity:1" fill="#d1bbc3" d="M 380.5,114.5 C 380.5,114.167 380.5,113.833 380.5,113.5C 396.167,113.5 411.833,113.5 427.5,113.5C 427.5,114.833 427.5,116.167 427.5,117.5C 426.596,116.791 426.263,115.791 426.5,114.5C 411.167,114.5 395.833,114.5 380.5,114.5 Z"/></g>
<g><path style="opacity:1" fill="#cdb5be" d="M 495.5,130.5 C 495.5,125.167 495.5,119.833 495.5,114.5C 488.167,114.5 480.833,114.5 473.5,114.5C 473.821,119.695 473.487,124.695 472.5,129.5C 472.5,124.167 472.5,118.833 472.5,113.5C 480.5,113.5 488.5,113.5 496.5,113.5C 496.822,119.358 496.489,125.025 495.5,130.5 Z"/></g>
<g><path style="opacity:1" fill="#fdfcfd" d="M 246.5,144.5 C 227.5,144.5 208.5,144.5 189.5,144.5C 189.5,172.167 189.5,199.833 189.5,227.5C 204.167,227.5 218.833,227.5 233.5,227.5C 233.5,234.167 233.5,240.833 233.5,247.5C 219.807,249.705 206.14,252.039 192.5,254.5C 191.5,288.493 191.167,322.493 191.5,356.5C 210.776,353.674 230.109,351.341 249.5,349.5C 249.567,362.842 249.9,376.175 250.5,389.5C 219.167,389.5 187.833,389.5 156.5,389.5C 159.323,297.491 162.323,205.491 165.5,113.5C 192.5,113.5 219.5,113.5 246.5,113.5C 246.5,123.833 246.5,134.167 246.5,144.5 Z"/></g>
<g><path style="opacity:1" fill="#fdfcfc" d="M 265.5,114.5 C 273.833,114.5 282.167,114.5 290.5,114.5C 290.232,116.099 290.566,117.432 291.5,118.5C 299.403,208.146 307.07,297.812 314.5,387.5C 315.5,387.5 316.5,387.5 317.5,387.5C 325.375,297.421 334.041,207.421 343.5,117.5C 352.167,117.5 360.833,117.5 369.5,117.5C 357.118,210.84 344.452,304.173 331.5,397.5C 317.167,397.5 302.833,397.5 288.5,397.5C 281.326,303.08 273.659,208.747 265.5,114.5 Z"/></g>
<g><path style="opacity:1" fill="#fcfbfb" d="M 380.5,114.5 C 395.833,114.5 411.167,114.5 426.5,114.5C 426.263,115.791 426.596,116.791 427.5,117.5C 439.209,203.216 451.209,288.883 463.5,374.5C 466.707,292.841 469.707,211.174 472.5,129.5C 473.487,124.695 473.821,119.695 473.5,114.5C 480.833,114.5 488.167,114.5 495.5,114.5C 495.5,119.833 495.5,125.167 495.5,130.5C 494.833,219.504 493.833,308.504 492.5,397.5C 476.758,398.142 461.258,397.475 446,395.5C 432.764,309.417 419.097,223.417 405,137.5C 404.833,224.334 404.333,311.001 403.5,397.5C 395.833,397.5 388.167,397.5 380.5,397.5C 380.5,303.167 380.5,208.833 380.5,114.5 Z"/></g>
<g><path style="opacity:1" fill="#742f49" d="M 246.5,144.5 C 228.007,145.497 209.341,145.83 190.5,145.5C 190.5,172.5 190.5,199.5 190.5,226.5C 205.01,226.171 219.343,226.504 233.5,227.5C 218.833,227.5 204.167,227.5 189.5,227.5C 189.5,199.833 189.5,172.167 189.5,144.5C 208.5,144.5 227.5,144.5 246.5,144.5 Z"/></g>
<g><path style="opacity:1" fill="#a5788a" d="M 112.5,134.5 C 112.56,133.957 112.893,133.624 113.5,133.5C 114.815,138.986 114.815,144.32 113.5,149.5C 113.821,144.305 113.487,139.305 112.5,134.5 Z"/></g>
<g><path style="opacity:1" fill="#945f74" d="M 37.5,154.5 C 36.8333,238.167 36.1667,321.833 35.5,405.5C 35.1667,321.497 35.5,237.497 36.5,153.5C 37.1067,153.624 37.44,153.957 37.5,154.5 Z"/></g>
<g><path style="opacity:1" fill="#a97d8e" d="M 71.5,262.5 C 72.2223,263.551 73.2223,264.218 74.5,264.5C 73.791,265.404 72.791,265.737 71.5,265.5C 71.5,264.5 71.5,263.5 71.5,262.5 Z"/></g>
</svg>
